<svg xmlns="http://www.w3.org/2000/svg" xmlns:xlink="http://www.w3.org/1999/xlink" width="100" zoomAndPan="magnify" viewBox="0 0 75 74.999997" height="100" preserveAspectRatio="xMidYMid meet" version="1.0"><defs><g/></defs><g fill="#f9fafe" fill-opacity="1"><g transform="translate(33.71905, 10.255643)"><g><path d="M 0.601562 -4.511719 C 0.601562 -4.632812 0.640625 -4.726562 0.726562 -4.800781 L 1.59375 -5.480469 C 1.679688 -5.550781 1.785156 -5.59375 1.894531 -5.59375 C 2.03125 -5.59375 2.152344 -5.542969 2.246094 -5.449219 C 2.34375 -5.351562 2.390625 -5.238281 2.390625 -5.105469 L 2.390625 -0.488281 C 2.390625 -0.34375 2.34375 -0.230469 2.246094 -0.136719 C 2.152344 -0.0390625 2.039062 0 1.902344 0 C 1.761719 0 1.648438 -0.046875 1.550781 -0.144531 C 1.457031 -0.238281 1.414062 -0.351562 1.414062 -0.496094 L 1.414062 -4.121094 C 1.414062 -4.152344 1.398438 -4.183594 1.375 -4.207031 C 1.34375 -4.222656 1.320312 -4.238281 1.296875 -4.238281 C 1.265625 -4.238281 1.238281 -4.230469 1.214844 -4.214844 C 1.136719 -4.152344 1.054688 -4.128906 0.976562 -4.128906 C 0.878906 -4.128906 0.792969 -4.160156 0.710938 -4.230469 C 0.632812 -4.304688 0.601562 -4.398438 0.601562 -4.511719 Z M 0.601562 -4.511719 "/></g></g></g><g fill="#f9fafe" fill-opacity="1"><g transform="translate(36.727085, 10.255643)"><g><path d="M 2.160156 -5.601562 L 2.246094 -5.601562 C 2.480469 -5.601562 2.695312 -5.550781 2.902344 -5.464844 C 3.113281 -5.367188 3.289062 -5.246094 3.449219 -5.097656 C 3.601562 -4.9375 3.71875 -4.761719 3.808594 -4.550781 C 3.894531 -4.34375 3.945312 -4.121094 3.945312 -3.886719 L 3.945312 -3.753906 C 3.945312 -3.558594 3.910156 -3.367188 3.847656 -3.191406 C 3.785156 -3.007812 3.695312 -2.839844 3.574219 -2.6875 L 2.335938 -1.128906 C 2.304688 -1.097656 2.304688 -1.054688 2.320312 -1.023438 C 2.335938 -0.984375 2.359375 -0.96875 2.40625 -0.96875 L 3.441406 -0.96875 C 3.574219 -0.96875 3.695312 -0.921875 3.792969 -0.824219 C 3.886719 -0.726562 3.9375 -0.617188 3.9375 -0.480469 C 3.9375 -0.335938 3.886719 -0.222656 3.792969 -0.128906 C 3.695312 -0.03125 3.585938 0.0078125 3.449219 0.0078125 L 1.191406 0.0078125 C 1.089844 0.0078125 1 -0.015625 0.921875 -0.0703125 C 0.839844 -0.121094 0.785156 -0.183594 0.753906 -0.265625 C 0.710938 -0.34375 0.695312 -0.425781 0.703125 -0.519531 C 0.703125 -0.617188 0.742188 -0.703125 0.808594 -0.785156 L 2.808594 -3.304688 C 2.910156 -3.433594 2.96875 -3.585938 2.96875 -3.753906 L 2.96875 -3.886719 C 2.96875 -4.089844 2.894531 -4.257812 2.761719 -4.398438 C 2.617188 -4.535156 2.449219 -4.609375 2.246094 -4.609375 L 2.160156 -4.609375 C 2.015625 -4.609375 1.894531 -4.566406 1.785156 -4.488281 C 1.671875 -4.40625 1.59375 -4.3125 1.542969 -4.183594 C 1.503906 -4.078125 1.441406 -4 1.359375 -3.945312 C 1.28125 -3.886719 1.183594 -3.863281 1.089844 -3.863281 C 1.015625 -3.863281 0.960938 -3.871094 0.910156 -3.894531 C 0.785156 -3.945312 0.6875 -4.023438 0.632812 -4.152344 C 0.574219 -4.273438 0.574219 -4.398438 0.625 -4.527344 C 0.679688 -4.6875 0.761719 -4.832031 0.863281 -4.960938 C 0.960938 -5.089844 1.078125 -5.207031 1.214844 -5.304688 C 1.351562 -5.398438 1.503906 -5.472656 1.664062 -5.519531 C 1.824219 -5.566406 1.984375 -5.601562 2.160156 -5.601562 Z M 2.160156 -5.601562 "/></g></g></g><g fill="#f9fafe" fill-opacity="1"><g transform="translate(65.624996, 39.500002)"><g><path d="M 3.542969 -3.046875 L 3.574219 -3.015625 C 3.855469 -2.695312 4 -2.28125 4 -1.753906 C 4 -1.496094 3.953125 -1.257812 3.863281 -1.039062 C 3.777344 -0.824219 3.65625 -0.640625 3.503906 -0.488281 C 3.34375 -0.328125 3.160156 -0.207031 2.945312 -0.121094 C 2.726562 -0.03125 2.496094 0.0078125 2.238281 0.0078125 C 1.855469 0.0078125 1.511719 -0.0898438 1.222656 -0.28125 C 0.929688 -0.472656 0.71875 -0.734375 0.601562 -1.070312 C 0.550781 -1.199219 0.550781 -1.320312 0.609375 -1.449219 C 0.664062 -1.566406 0.761719 -1.65625 0.886719 -1.703125 C 0.9375 -1.71875 0.992188 -1.734375 1.0625 -1.734375 C 1.160156 -1.734375 1.257812 -1.703125 1.335938 -1.648438 C 1.414062 -1.59375 1.480469 -1.511719 1.519531 -1.414062 C 1.566406 -1.273438 1.65625 -1.167969 1.785156 -1.089844 C 1.910156 -1.007812 2.0625 -0.976562 2.238281 -0.976562 C 2.34375 -0.976562 2.449219 -0.992188 2.542969 -1.039062 C 2.640625 -1.078125 2.71875 -1.136719 2.792969 -1.207031 C 2.863281 -1.28125 2.921875 -1.367188 2.960938 -1.464844 C 3 -1.558594 3.023438 -1.65625 3.023438 -1.769531 C 3.023438 -1.9375 3 -2.070312 2.96875 -2.175781 C 2.929688 -2.273438 2.878906 -2.351562 2.816406 -2.40625 C 2.753906 -2.457031 2.6875 -2.496094 2.617188 -2.511719 C 2.542969 -2.527344 2.472656 -2.535156 2.398438 -2.535156 C 2.257812 -2.535156 2.144531 -2.585938 2.046875 -2.679688 C 1.953125 -2.777344 1.910156 -2.886719 1.910156 -3.03125 C 1.910156 -3.167969 1.960938 -3.289062 2.054688 -3.382812 C 2.152344 -3.480469 2.265625 -3.527344 2.40625 -3.527344 C 2.449219 -3.527344 2.488281 -3.527344 2.535156 -3.535156 C 2.585938 -3.535156 2.625 -3.558594 2.664062 -3.59375 C 2.703125 -3.625 2.734375 -3.679688 2.769531 -3.761719 C 2.792969 -3.832031 2.808594 -3.9375 2.808594 -4.070312 C 2.808594 -4.191406 2.785156 -4.289062 2.742188 -4.367188 C 2.695312 -4.441406 2.648438 -4.496094 2.59375 -4.535156 C 2.527344 -4.566406 2.472656 -4.59375 2.40625 -4.609375 C 2.34375 -4.617188 2.296875 -4.625 2.257812 -4.625 C 2.207031 -4.625 2.160156 -4.617188 2.113281 -4.609375 C 2.054688 -4.601562 2 -4.585938 1.953125 -4.558594 C 1.902344 -4.527344 1.855469 -4.488281 1.816406 -4.441406 C 1.769531 -4.390625 1.742188 -4.328125 1.726562 -4.246094 C 1.695312 -4.136719 1.640625 -4.039062 1.550781 -3.96875 C 1.464844 -3.894531 1.367188 -3.863281 1.257812 -3.863281 C 1.230469 -3.863281 1.191406 -3.863281 1.144531 -3.878906 C 1.007812 -3.902344 0.902344 -3.976562 0.832031 -4.089844 C 0.761719 -4.199219 0.742188 -4.328125 0.777344 -4.464844 C 0.855469 -4.816406 1.039062 -5.097656 1.3125 -5.304688 C 1.585938 -5.503906 1.894531 -5.609375 2.265625 -5.609375 C 2.488281 -5.609375 2.6875 -5.566406 2.878906 -5.496094 C 3.070312 -5.417969 3.230469 -5.3125 3.367188 -5.175781 C 3.503906 -5.039062 3.609375 -4.878906 3.6875 -4.6875 C 3.761719 -4.496094 3.800781 -4.296875 3.800781 -4.070312 C 3.800781 -3.71875 3.726562 -3.414062 3.585938 -3.167969 C 3.566406 -3.144531 3.558594 -3.121094 3.542969 -3.105469 C 3.527344 -3.078125 3.527344 -3.0625 3.542969 -3.046875 Z M 3.542969 -3.046875 "/></g></g></g><g fill="#f9fafe" fill-opacity="1"><g transform="translate(4.875001, 39.500002)"><g><path d="M 1.574219 -3.679688 C 1.574219 -3.390625 1.640625 -3.167969 1.777344 -3.007812 C 1.902344 -2.847656 2.097656 -2.769531 2.34375 -2.769531 C 2.585938 -2.769531 2.777344 -2.839844 2.910156 -3 C 3.046875 -3.152344 3.121094 -3.367188 3.128906 -3.648438 L 3.128906 -3.679688 C 3.128906 -3.96875 3.054688 -4.191406 2.921875 -4.351562 C 2.785156 -4.511719 2.59375 -4.59375 2.351562 -4.59375 C 2.105469 -4.59375 1.910156 -4.511719 1.777344 -4.351562 C 1.640625 -4.191406 1.574219 -3.96875 1.574219 -3.679688 Z M 4.113281 -3.945312 C 4.121094 -3.71875 4.121094 -3.480469 4.121094 -3.238281 C 4.113281 -3 4.089844 -2.753906 4.054688 -2.511719 C 4.015625 -2.265625 3.960938 -2.023438 3.894531 -1.785156 C 3.824219 -1.542969 3.726562 -1.320312 3.617188 -1.113281 C 3.183594 -0.351562 2.519531 0.0234375 1.640625 0.0234375 C 1.496094 0.0234375 1.382812 -0.0234375 1.289062 -0.121094 C 1.191406 -0.214844 1.152344 -0.328125 1.152344 -0.472656 C 1.152344 -0.609375 1.199219 -0.726562 1.296875 -0.824219 C 1.390625 -0.921875 1.503906 -0.96875 1.648438 -0.96875 C 1.753906 -0.96875 1.855469 -0.976562 1.96875 -0.992188 C 2.070312 -1.007812 2.175781 -1.039062 2.28125 -1.097656 C 2.375 -1.144531 2.472656 -1.214844 2.566406 -1.3125 C 2.65625 -1.40625 2.734375 -1.527344 2.816406 -1.6875 C 2.832031 -1.71875 2.824219 -1.742188 2.808594 -1.777344 C 2.785156 -1.808594 2.761719 -1.824219 2.726562 -1.824219 L 2.703125 -1.824219 C 2.59375 -1.808594 2.472656 -1.800781 2.359375 -1.800781 C 2.089844 -1.800781 1.839844 -1.847656 1.625 -1.953125 C 1.398438 -2.046875 1.214844 -2.183594 1.0625 -2.359375 C 0.910156 -2.527344 0.792969 -2.726562 0.710938 -2.960938 C 0.632812 -3.191406 0.59375 -3.441406 0.59375 -3.703125 C 0.59375 -3.960938 0.632812 -4.207031 0.710938 -4.441406 C 0.792969 -4.671875 0.910156 -4.871094 1.0625 -5.046875 C 1.214844 -5.214844 1.398438 -5.351562 1.625 -5.457031 C 1.839844 -5.550781 2.089844 -5.609375 2.359375 -5.609375 C 2.601562 -5.609375 2.824219 -5.558594 3.03125 -5.480469 C 3.238281 -5.390625 3.414062 -5.273438 3.566406 -5.128906 C 3.71875 -4.984375 3.839844 -4.808594 3.9375 -4.609375 C 4.03125 -4.398438 4.089844 -4.183594 4.113281 -3.945312 Z M 4.113281 -3.945312 "/></g></g></g><g fill="#f9fafe" fill-opacity="1"><g transform="translate(35.624999, 69.5)"><g><path d="M 2.351562 -0.992188 L 2.359375 -0.992188 C 2.601562 -0.992188 2.792969 -1.070312 2.929688 -1.230469 C 3.0625 -1.390625 3.136719 -1.617188 3.136719 -1.902344 C 3.136719 -2.191406 3.0625 -2.414062 2.929688 -2.574219 C 2.792969 -2.734375 2.601562 -2.816406 2.359375 -2.816406 C 2.113281 -2.816406 1.921875 -2.734375 1.785156 -2.585938 C 1.648438 -2.425781 1.574219 -2.207031 1.574219 -1.9375 L 1.574219 -1.902344 C 1.574219 -1.617188 1.640625 -1.390625 1.777344 -1.230469 C 1.910156 -1.070312 2.105469 -0.992188 2.351562 -0.992188 Z M 2.359375 -3.792969 C 2.632812 -3.792969 2.871094 -3.734375 3.097656 -3.640625 C 3.3125 -3.542969 3.496094 -3.40625 3.648438 -3.230469 C 3.800781 -3.054688 3.921875 -2.855469 4 -2.632812 C 4.078125 -2.398438 4.121094 -2.152344 4.121094 -1.894531 C 4.121094 -1.632812 4.070312 -1.382812 3.992188 -1.152344 C 3.910156 -0.921875 3.792969 -0.71875 3.640625 -0.550781 C 3.488281 -0.375 3.304688 -0.238281 3.089844 -0.144531 C 2.863281 -0.0390625 2.625 0.0078125 2.351562 0.0078125 C 2.105469 0.0078125 1.878906 -0.03125 1.671875 -0.121094 C 1.464844 -0.199219 1.289062 -0.320312 1.136719 -0.464844 C 0.984375 -0.609375 0.863281 -0.785156 0.769531 -0.992188 C 0.671875 -1.191406 0.617188 -1.414062 0.601562 -1.65625 L 0.601562 -1.671875 C 0.59375 -1.792969 0.59375 -1.863281 0.59375 -1.886719 L 0.59375 -1.929688 C 0.59375 -2.34375 0.625 -2.769531 0.6875 -3.199219 C 0.753906 -3.632812 0.871094 -4.03125 1.046875 -4.382812 C 1.222656 -4.734375 1.480469 -5.03125 1.800781 -5.257812 C 2.121094 -5.480469 2.542969 -5.601562 3.0625 -5.601562 C 3.199219 -5.601562 3.320312 -5.550781 3.414062 -5.457031 C 3.511719 -5.359375 3.558594 -5.246094 3.558594 -5.113281 C 3.558594 -4.96875 3.511719 -4.855469 3.414062 -4.761719 C 3.320312 -4.664062 3.207031 -4.625 3.070312 -4.625 C 2.960938 -4.625 2.855469 -4.617188 2.753906 -4.601562 C 2.640625 -4.585938 2.535156 -4.542969 2.441406 -4.496094 C 2.335938 -4.441406 2.238281 -4.367188 2.152344 -4.273438 C 2.054688 -4.175781 1.976562 -4.054688 1.902344 -3.902344 C 1.886719 -3.871094 1.886719 -3.839844 1.910156 -3.808594 C 1.929688 -3.777344 1.960938 -3.769531 1.992188 -3.769531 L 2.015625 -3.769531 C 2.128906 -3.785156 2.238281 -3.792969 2.359375 -3.792969 Z M 2.359375 -3.792969 "/></g></g></g><g fill="#f9fafe" fill-opacity="1"><g transform="translate(51.485815, 14.033351)"><g><path d="M 0.601562 -4.511719 C 0.601562 -4.632812 0.640625 -4.726562 0.726562 -4.800781 L 1.59375 -5.480469 C 1.679688 -5.550781 1.785156 -5.59375 1.894531 -5.59375 C 2.03125 -5.59375 2.152344 -5.542969 2.246094 -5.449219 C 2.34375 -5.351562 2.390625 -5.238281 2.390625 -5.105469 L 2.390625 -0.488281 C 2.390625 -0.34375 2.34375 -0.230469 2.246094 -0.136719 C 2.152344 -0.0390625 2.039062 0 1.902344 0 C 1.761719 0 1.648438 -0.046875 1.550781 -0.144531 C 1.457031 -0.238281 1.414062 -0.351562 1.414062 -0.496094 L 1.414062 -4.121094 C 1.414062 -4.152344 1.398438 -4.183594 1.375 -4.207031 C 1.34375 -4.222656 1.320312 -4.238281 1.296875 -4.238281 C 1.265625 -4.238281 1.238281 -4.230469 1.214844 -4.214844 C 1.136719 -4.152344 1.054688 -4.128906 0.976562 -4.128906 C 0.878906 -4.128906 0.792969 -4.160156 0.710938 -4.230469 C 0.632812 -4.304688 0.601562 -4.398438 0.601562 -4.511719 Z M 0.601562 -4.511719 "/></g></g></g><g fill="#f9fafe" fill-opacity="1"><g transform="translate(61.874996, 24.53335)"><g><path d="M 2.160156 -5.601562 L 2.246094 -5.601562 C 2.480469 -5.601562 2.695312 -5.550781 2.902344 -5.464844 C 3.113281 -5.367188 3.289062 -5.246094 3.449219 -5.097656 C 3.601562 -4.9375 3.71875 -4.761719 3.808594 -4.550781 C 3.894531 -4.34375 3.945312 -4.121094 3.945312 -3.886719 L 3.945312 -3.753906 C 3.945312 -3.558594 3.910156 -3.367188 3.847656 -3.191406 C 3.785156 -3.007812 3.695312 -2.839844 3.574219 -2.6875 L 2.335938 -1.128906 C 2.304688 -1.097656 2.304688 -1.054688 2.320312 -1.023438 C 2.335938 -0.984375 2.359375 -0.96875 2.40625 -0.96875 L 3.441406 -0.96875 C 3.574219 -0.96875 3.695312 -0.921875 3.792969 -0.824219 C 3.886719 -0.726562 3.9375 -0.617188 3.9375 -0.480469 C 3.9375 -0.335938 3.886719 -0.222656 3.792969 -0.128906 C 3.695312 -0.03125 3.585938 0.0078125 3.449219 0.0078125 L 1.191406 0.0078125 C 1.089844 0.0078125 1 -0.015625 0.921875 -0.0703125 C 0.839844 -0.121094 0.785156 -0.183594 0.753906 -0.265625 C 0.710938 -0.34375 0.695312 -0.425781 0.703125 -0.519531 C 0.703125 -0.617188 0.742188 -0.703125 0.808594 -0.785156 L 2.808594 -3.304688 C 2.910156 -3.433594 2.96875 -3.585938 2.96875 -3.753906 L 2.96875 -3.886719 C 2.96875 -4.089844 2.894531 -4.257812 2.761719 -4.398438 C 2.617188 -4.535156 2.449219 -4.609375 2.246094 -4.609375 L 2.160156 -4.609375 C 2.015625 -4.609375 1.894531 -4.566406 1.785156 -4.488281 C 1.671875 -4.40625 1.59375 -4.3125 1.542969 -4.183594 C 1.503906 -4.078125 1.441406 -4 1.359375 -3.945312 C 1.28125 -3.886719 1.183594 -3.863281 1.089844 -3.863281 C 1.015625 -3.863281 0.960938 -3.871094 0.910156 -3.894531 C 0.785156 -3.945312 0.6875 -4.023438 0.632812 -4.152344 C 0.574219 -4.273438 0.574219 -4.398438 0.625 -4.527344 C 0.679688 -4.6875 0.761719 -4.832031 0.863281 -4.960938 C 0.960938 -5.089844 1.078125 -5.207031 1.214844 -5.304688 C 1.351562 -5.398438 1.503906 -5.472656 1.664062 -5.519531 C 1.824219 -5.566406 1.984375 -5.601562 2.160156 -5.601562 Z M 2.160156 -5.601562 "/></g></g></g><g fill="#f9fafe" fill-opacity="1"><g transform="translate(61.874996, 55.316694)"><g><path d="M 2.113281 -2.296875 L 2.457031 -2.296875 C 2.519531 -2.296875 2.558594 -2.328125 2.558594 -2.398438 L 2.558594 -2.960938 C 2.558594 -2.992188 2.542969 -3.015625 2.527344 -3.03125 C 2.503906 -3.046875 2.480469 -3.0625 2.457031 -3.0625 C 2.425781 -3.0625 2.390625 -3.046875 2.367188 -3.015625 L 2.023438 -2.449219 C 2 -2.414062 2 -2.375 2.015625 -2.34375 C 2.03125 -2.3125 2.0625 -2.296875 2.113281 -2.296875 Z M 3.070312 -5.601562 C 3.207031 -5.601562 3.320312 -5.542969 3.40625 -5.449219 C 3.496094 -5.351562 3.542969 -5.230469 3.542969 -5.097656 L 3.542969 -2.398438 C 3.542969 -2.335938 3.566406 -2.3125 3.632812 -2.3125 C 3.769531 -2.3125 3.886719 -2.265625 3.984375 -2.167969 C 4.078125 -2.070312 4.128906 -1.960938 4.128906 -1.824219 C 4.128906 -1.679688 4.078125 -1.566406 3.984375 -1.472656 C 3.886719 -1.375 3.777344 -1.335938 3.640625 -1.335938 C 3.574219 -1.335938 3.550781 -1.304688 3.550781 -1.246094 L 3.550781 -0.496094 C 3.550781 -0.351562 3.503906 -0.238281 3.40625 -0.144531 C 3.3125 -0.046875 3.199219 -0.0078125 3.0625 -0.0078125 C 2.921875 -0.0078125 2.808594 -0.0546875 2.710938 -0.152344 C 2.617188 -0.246094 2.574219 -0.359375 2.574219 -0.503906 L 2.574219 -1.257812 C 2.574219 -1.3125 2.542969 -1.34375 2.488281 -1.34375 L 1.089844 -1.34375 C 0.992188 -1.34375 0.902344 -1.367188 0.832031 -1.414062 C 0.753906 -1.464844 0.695312 -1.519531 0.65625 -1.59375 C 0.617188 -1.664062 0.601562 -1.742188 0.601562 -1.832031 C 0.601562 -1.921875 0.625 -2.007812 0.671875 -2.089844 L 2.65625 -5.367188 C 2.753906 -5.519531 2.886719 -5.601562 3.070312 -5.601562 Z M 3.070312 -5.601562 "/></g></g></g><g fill="#f9fafe" fill-opacity="1"><g transform="translate(51.121231, 65.716649)"><g><path d="M 2.191406 -3.984375 C 2.496094 -3.984375 2.761719 -3.9375 2.992188 -3.839844 C 3.214844 -3.742188 3.40625 -3.617188 3.558594 -3.449219 C 3.710938 -3.273438 3.824219 -3.0625 3.902344 -2.824219 C 3.984375 -2.574219 4.023438 -2.304688 4.023438 -2.007812 C 4.023438 -1.71875 3.984375 -1.449219 3.902344 -1.199219 C 3.824219 -0.953125 3.703125 -0.734375 3.550781 -0.550781 C 3.390625 -0.367188 3.199219 -0.222656 2.96875 -0.121094 C 2.734375 -0.015625 2.472656 0.03125 2.167969 0.03125 C 1.800781 0.03125 1.480469 -0.0546875 1.207031 -0.246094 C 0.9375 -0.441406 0.742188 -0.703125 0.625 -1.046875 C 0.574219 -1.175781 0.574219 -1.296875 0.640625 -1.425781 C 0.695312 -1.542969 0.792969 -1.632812 0.921875 -1.679688 C 0.96875 -1.695312 1.023438 -1.710938 1.097656 -1.710938 C 1.191406 -1.710938 1.289062 -1.679688 1.367188 -1.625 C 1.449219 -1.566406 1.511719 -1.488281 1.550781 -1.390625 C 1.648438 -1.105469 1.855469 -0.96875 2.167969 -0.96875 C 2.34375 -0.96875 2.496094 -1 2.609375 -1.0625 C 2.71875 -1.128906 2.808594 -1.207031 2.871094 -1.3125 C 2.9375 -1.414062 2.976562 -1.527344 3 -1.65625 C 3.023438 -1.785156 3.039062 -1.902344 3.039062 -2.03125 C 3.039062 -2.351562 2.976562 -2.59375 2.855469 -2.753906 C 2.734375 -2.910156 2.511719 -2.992188 2.191406 -2.992188 C 2.039062 -2.992188 1.902344 -2.976562 1.777344 -2.953125 C 1.648438 -2.921875 1.550781 -2.894531 1.496094 -2.878906 C 1.441406 -2.863281 1.382812 -2.855469 1.335938 -2.855469 C 1.199219 -2.855469 1.078125 -2.894531 0.984375 -2.992188 C 0.886719 -3.089844 0.839844 -3.199219 0.839844 -3.34375 L 0.839844 -5.089844 C 0.839844 -5.222656 0.886719 -5.34375 0.984375 -5.441406 C 1.078125 -5.535156 1.199219 -5.59375 1.34375 -5.59375 L 3.121094 -5.59375 C 3.257812 -5.59375 3.375 -5.542969 3.472656 -5.449219 C 3.566406 -5.351562 3.617188 -5.238281 3.617188 -5.105469 C 3.617188 -4.960938 3.566406 -4.847656 3.472656 -4.753906 C 3.375 -4.65625 3.265625 -4.617188 3.128906 -4.617188 L 2.023438 -4.617188 C 1.960938 -4.617188 1.910156 -4.59375 1.878906 -4.558594 C 1.839844 -4.519531 1.824219 -4.472656 1.824219 -4.414062 L 1.824219 -4.175781 C 1.824219 -4.113281 1.839844 -4.0625 1.878906 -4.03125 C 1.921875 -3.992188 1.96875 -3.976562 2.03125 -3.984375 Z M 2.191406 -3.984375 "/></g></g></g><g fill="#f9fafe" fill-opacity="1"><g transform="translate(19.875, 65.716649)"><g><path d="M 2.535156 -4.617188 L 1.089844 -4.617188 C 0.953125 -4.617188 0.839844 -4.664062 0.742188 -4.761719 C 0.648438 -4.855469 0.601562 -4.976562 0.601562 -5.113281 L 0.601562 -5.128906 C 0.601562 -5.257812 0.640625 -5.367188 0.734375 -5.464844 C 0.832031 -5.558594 0.945312 -5.609375 1.078125 -5.609375 L 3.566406 -5.609375 C 3.695312 -5.609375 3.808594 -5.558594 3.902344 -5.464844 C 4 -5.367188 4.046875 -5.257812 4.046875 -5.128906 C 4.046875 -5.046875 4.03125 -4.992188 4.015625 -4.945312 L 2.144531 -0.3125 C 2.105469 -0.214844 2.046875 -0.144531 1.96875 -0.0898438 C 1.886719 -0.03125 1.792969 -0.0078125 1.695312 -0.0078125 L 1.679688 -0.0078125 C 1.59375 -0.0078125 1.511719 -0.0234375 1.449219 -0.0625 C 1.375 -0.105469 1.320312 -0.152344 1.28125 -0.214844 C 1.230469 -0.28125 1.207031 -0.351562 1.199219 -0.433594 C 1.183594 -0.511719 1.199219 -0.59375 1.230469 -0.671875 L 2.71875 -4.34375 C 2.742188 -4.40625 2.734375 -4.464844 2.703125 -4.527344 C 2.664062 -4.585938 2.609375 -4.617188 2.535156 -4.617188 Z M 2.535156 -4.617188 "/></g></g></g><g fill="#f9fafe" fill-opacity="1"><g transform="translate(8.625001, 55.316694)"><g><path d="M 2.351562 -0.984375 C 2.59375 -0.984375 2.785156 -1.046875 2.921875 -1.183594 C 3.054688 -1.320312 3.128906 -1.511719 3.128906 -1.761719 C 3.128906 -2 3.054688 -2.191406 2.921875 -2.328125 C 2.785156 -2.464844 2.59375 -2.535156 2.351562 -2.535156 C 2.105469 -2.535156 1.910156 -2.464844 1.777344 -2.328125 C 1.640625 -2.191406 1.574219 -2 1.574219 -1.761719 C 1.574219 -1.511719 1.640625 -1.320312 1.777344 -1.183594 C 1.910156 -1.046875 2.105469 -0.984375 2.351562 -0.984375 Z M 2.351562 -3.527344 C 2.390625 -3.527344 2.441406 -3.527344 2.503906 -3.542969 C 2.566406 -3.550781 2.625 -3.574219 2.6875 -3.617188 C 2.742188 -3.648438 2.792969 -3.703125 2.839844 -3.785156 C 2.878906 -3.855469 2.902344 -3.953125 2.902344 -4.078125 C 2.902344 -4.199219 2.878906 -4.296875 2.839844 -4.375 C 2.792969 -4.449219 2.742188 -4.503906 2.6875 -4.542969 C 2.625 -4.574219 2.566406 -4.601562 2.503906 -4.617188 C 2.441406 -4.625 2.390625 -4.632812 2.351562 -4.632812 C 2.304688 -4.632812 2.257812 -4.625 2.191406 -4.617188 C 2.128906 -4.601562 2.070312 -4.574219 2.015625 -4.542969 C 1.953125 -4.503906 1.902344 -4.449219 1.863281 -4.375 C 1.816406 -4.296875 1.800781 -4.199219 1.800781 -4.078125 C 1.800781 -3.953125 1.816406 -3.855469 1.863281 -3.785156 C 1.902344 -3.703125 1.953125 -3.648438 2.015625 -3.617188 C 2.070312 -3.574219 2.128906 -3.550781 2.191406 -3.542969 C 2.257812 -3.527344 2.304688 -3.527344 2.351562 -3.527344 Z M 3.609375 -3.039062 C 3.945312 -2.703125 4.113281 -2.28125 4.113281 -1.769531 C 4.113281 -1.511719 4.0625 -1.273438 3.976562 -1.054688 C 3.886719 -0.839844 3.769531 -0.65625 3.617188 -0.503906 C 3.457031 -0.34375 3.273438 -0.222656 3.054688 -0.136719 C 2.839844 -0.046875 2.609375 -0.0078125 2.351562 -0.0078125 C 2.097656 -0.0078125 1.855469 -0.046875 1.640625 -0.136719 C 1.425781 -0.222656 1.238281 -0.34375 1.089844 -0.503906 C 0.929688 -0.65625 0.808594 -0.839844 0.71875 -1.054688 C 0.632812 -1.273438 0.59375 -1.511719 0.59375 -1.769531 C 0.59375 -2.023438 0.632812 -2.257812 0.71875 -2.472656 C 0.800781 -2.679688 0.929688 -2.871094 1.089844 -3.03125 C 1.128906 -3.070312 1.128906 -3.113281 1.097656 -3.160156 C 0.910156 -3.414062 0.824219 -3.71875 0.824219 -4.070312 C 0.824219 -4.296875 0.855469 -4.496094 0.9375 -4.6875 C 1.015625 -4.878906 1.121094 -5.039062 1.257812 -5.175781 C 1.390625 -5.3125 1.550781 -5.417969 1.742188 -5.496094 C 1.929688 -5.566406 2.136719 -5.609375 2.359375 -5.609375 C 2.585938 -5.609375 2.785156 -5.566406 2.976562 -5.496094 C 3.167969 -5.417969 3.328125 -5.3125 3.464844 -5.175781 C 3.601562 -5.039062 3.703125 -4.878906 3.785156 -4.6875 C 3.855469 -4.496094 3.894531 -4.296875 3.894531 -4.070312 C 3.894531 -3.71875 3.800781 -3.414062 3.625 -3.160156 C 3.574219 -3.113281 3.574219 -3.070312 3.609375 -3.039062 Z M 3.609375 -3.039062 "/></g></g></g><g fill="#f9fafe" fill-opacity="1"><g transform="translate(7.572918, 24.53335)"><g><path d="M 0.601562 -4.511719 C 0.601562 -4.632812 0.640625 -4.726562 0.726562 -4.800781 L 1.59375 -5.480469 C 1.679688 -5.550781 1.785156 -5.59375 1.894531 -5.59375 C 2.03125 -5.59375 2.152344 -5.542969 2.246094 -5.449219 C 2.34375 -5.351562 2.390625 -5.238281 2.390625 -5.105469 L 2.390625 -0.488281 C 2.390625 -0.34375 2.34375 -0.230469 2.246094 -0.136719 C 2.152344 -0.0390625 2.039062 0 1.902344 0 C 1.761719 0 1.648438 -0.046875 1.550781 -0.144531 C 1.457031 -0.238281 1.414062 -0.351562 1.414062 -0.496094 L 1.414062 -4.121094 C 1.414062 -4.152344 1.398438 -4.183594 1.375 -4.207031 C 1.34375 -4.222656 1.320312 -4.238281 1.296875 -4.238281 C 1.265625 -4.238281 1.238281 -4.230469 1.214844 -4.214844 C 1.136719 -4.152344 1.054688 -4.128906 0.976562 -4.128906 C 0.878906 -4.128906 0.792969 -4.160156 0.710938 -4.230469 C 0.632812 -4.304688 0.601562 -4.398438 0.601562 -4.511719 Z M 0.601562 -4.511719 "/></g></g></g><g fill="#f9fafe" fill-opacity="1"><g transform="translate(10.580953, 24.53335)"><g><path d="M 2.503906 -5.601562 C 2.785156 -5.59375 3.046875 -5.519531 3.289062 -5.375 C 3.527344 -5.230469 3.734375 -5.03125 3.910156 -4.777344 C 4.230469 -4.265625 4.398438 -3.609375 4.398438 -2.800781 C 4.398438 -1.984375 4.230469 -1.328125 3.910156 -0.824219 C 3.734375 -0.550781 3.527344 -0.351562 3.289062 -0.207031 C 3.046875 -0.0625 2.785156 0 2.496094 0 C 2.207031 0 1.945312 -0.0625 1.703125 -0.207031 C 1.464844 -0.351562 1.257812 -0.550781 1.089844 -0.824219 C 0.761719 -1.328125 0.601562 -1.984375 0.601562 -2.800781 C 0.601562 -3.609375 0.761719 -4.265625 1.089844 -4.777344 C 1.257812 -5.039062 1.464844 -5.238281 1.703125 -5.382812 C 1.945312 -5.527344 2.214844 -5.601562 2.503906 -5.601562 Z M 2.503906 -0.984375 C 2.695312 -0.984375 2.847656 -1.046875 2.96875 -1.191406 C 3.078125 -1.328125 3.175781 -1.496094 3.238281 -1.6875 C 3.304688 -1.878906 3.351562 -2.078125 3.375 -2.289062 C 3.398438 -2.496094 3.414062 -2.664062 3.414062 -2.800781 C 3.414062 -2.929688 3.398438 -3.097656 3.375 -3.304688 C 3.351562 -3.511719 3.304688 -3.710938 3.238281 -3.902344 C 3.175781 -4.097656 3.078125 -4.265625 2.96875 -4.40625 C 2.847656 -4.542969 2.695312 -4.617188 2.503906 -4.617188 C 2.3125 -4.617188 2.152344 -4.542969 2.039062 -4.40625 C 1.921875 -4.265625 1.824219 -4.097656 1.761719 -3.902344 C 1.695312 -3.710938 1.648438 -3.511719 1.625 -3.304688 C 1.601562 -3.097656 1.59375 -2.929688 1.59375 -2.800781 C 1.59375 -2.664062 1.601562 -2.496094 1.625 -2.289062 C 1.648438 -2.078125 1.695312 -1.878906 1.761719 -1.6875 C 1.824219 -1.496094 1.921875 -1.328125 2.039062 -1.191406 C 2.152344 -1.046875 2.3125 -0.984375 2.503906 -0.984375 Z M 2.503906 -0.984375 "/></g></g></g><g fill="#f9fafe" fill-opacity="1"><g transform="translate(18.739586, 14.033351)"><g><path d="M 0.601562 -4.511719 C 0.601562 -4.632812 0.640625 -4.726562 0.726562 -4.800781 L 1.59375 -5.480469 C 1.679688 -5.550781 1.785156 -5.59375 1.894531 -5.59375 C 2.03125 -5.59375 2.152344 -5.542969 2.246094 -5.449219 C 2.34375 -5.351562 2.390625 -5.238281 2.390625 -5.105469 L 2.390625 -0.488281 C 2.390625 -0.34375 2.34375 -0.230469 2.246094 -0.136719 C 2.152344 -0.0390625 2.039062 0 1.902344 0 C 1.761719 0 1.648438 -0.046875 1.550781 -0.144531 C 1.457031 -0.238281 1.414062 -0.351562 1.414062 -0.496094 L 1.414062 -4.121094 C 1.414062 -4.152344 1.398438 -4.183594 1.375 -4.207031 C 1.34375 -4.222656 1.320312 -4.238281 1.296875 -4.238281 C 1.265625 -4.238281 1.238281 -4.230469 1.214844 -4.214844 C 1.136719 -4.152344 1.054688 -4.128906 0.976562 -4.128906 C 0.878906 -4.128906 0.792969 -4.160156 0.710938 -4.230469 C 0.632812 -4.304688 0.601562 -4.398438 0.601562 -4.511719 Z M 0.601562 -4.511719 "/></g></g></g><g fill="#f9fafe" fill-opacity="1"><g transform="translate(21.747621, 14.033351)"><g><path d="M 0.601562 -4.511719 C 0.601562 -4.632812 0.640625 -4.726562 0.726562 -4.800781 L 1.59375 -5.480469 C 1.679688 -5.550781 1.785156 -5.59375 1.894531 -5.59375 C 2.03125 -5.59375 2.152344 -5.542969 2.246094 -5.449219 C 2.34375 -5.351562 2.390625 -5.238281 2.390625 -5.105469 L 2.390625 -0.488281 C 2.390625 -0.34375 2.34375 -0.230469 2.246094 -0.136719 C 2.152344 -0.0390625 2.039062 0 1.902344 0 C 1.761719 0 1.648438 -0.046875 1.550781 -0.144531 C 1.457031 -0.238281 1.414062 -0.351562 1.414062 -0.496094 L 1.414062 -4.121094 C 1.414062 -4.152344 1.398438 -4.183594 1.375 -4.207031 C 1.34375 -4.222656 1.320312 -4.238281 1.296875 -4.238281 C 1.265625 -4.238281 1.238281 -4.230469 1.214844 -4.214844 C 1.136719 -4.152344 1.054688 -4.128906 0.976562 -4.128906 C 0.878906 -4.128906 0.792969 -4.160156 0.710938 -4.230469 C 0.632812 -4.304688 0.601562 -4.398438 0.601562 -4.511719 Z M 0.601562 -4.511719 "/></g></g></g></svg>